# xmcd
#
# Track frame offsets:
#	150
#	17851
#	27994
#	44742
#	55809
#	68842
#	82696
#	99450
#	109790
#	126693
#	147757
#	167732
#	181796
#	194877
#	207258
#	223506
#	238642
#	253040
#	268035
#	283161
#
# Disc length: 3979 seconds
#
# Revision: 1
# Processed by: cddbd v1.4PL0 Copyright (c) Steve Scherf et al.
# Submitted via: audiograbber 1.80
#
DISCID=320f8914
DTITLE=Lepa Brena - Grandovi Hitovi
DYEAR=1900
DGENRE=
TTITLE0=Robinja
TTITLE1=bato, Bato
TTITLE2=Zbog tebe
TTITLE3=Boc, boc
TTITLE4=Igraj boro moe oro
TTITLE5=Miki moi
TTITLE6=Janos
TTITLE7=Pile moe
TTITLE8=Seki seki
TTITLE9=Cetiri godini
TTITLE10=Jugoslavenka
TTITLE11=Evo zima ce
TTITLE12=Snanjam
TTITLE13=Udri mujo
TTITLE14=On ne voli me
TTITLE15=Biseri beli
TTITLE16=Hajde da se volimo
TTITLE17=Golube
TTITLE18=Cik pogod
TTITLE19=wiss ma nicht
EXTD=
EXTT0=
EXTT1=
EXTT2=
EXTT3=
EXTT4=
EXTT5=
EXTT6=
EXTT7=
EXTT8=
EXTT9=
EXTT10=
EXTT11=
EXTT12=
EXTT13=
EXTT14=
EXTT15=
EXTT16=
EXTT17=
EXTT18=
EXTT19=
PLAYORDER=
